<svg xmlns="http://www.w3.org/2000/svg" viewBox="0 0 24 24" fill="#0081FB">
  <!-- Meta logo - infinity symbol -->
  <path d="M12 10.202c-.69-1.201-1.627-2.202-2.912-2.202-2.412 0-4.088 2.737-4.088 6s1.676 6 4.088 6c1.285 0 2.223-1.001 2.912-2.202.69 1.201 1.627 2.202 2.912 2.202 2.412 0 4.088-2.737 4.088-6s-1.676-6-4.088-6c-1.285 0-2.223 1.001-2.912 2.202zM9.088 17.5c-1.324 0-2.338-1.594-2.338-3.5s1.014-3.5 2.338-3.5c.935 0 1.712.87 2.287 1.95.115.217.312.55.625.55s.51-.333.625-.55c.575-1.08 1.352-1.95 2.287-1.95 1.324 0 2.338 1.594 2.338 3.5s-1.014 3.5-2.338 3.5c-.935 0-1.712-.87-2.287-1.95-.115-.217-.312-.55-.625-.55s-.51.333-.625.55c-.575 1.08-1.352 1.95-2.287 1.95z"/>
</svg>
