<svg xmlns="http://www.w3.org/2000/svg" viewBox="0 0 24 24" fill="#339933">
  <path d="M11.998 24c-.321 0-.641-.084-.922-.247l-2.936-1.737c-.438-.245-.224-.332-.08-.383.585-.203.703-.25 1.328-.604.065-.037.151-.023.218.017l2.256 1.339c.082.045.198.045.275 0l8.795-5.076c.082-.047.134-.141.134-.238V6.921c0-.099-.053-.193-.137-.242l-8.791-5.072c-.081-.047-.189-.047-.271 0L3.075 6.68c-.085.049-.139.143-.139.241v10.15c0 .097.054.189.137.236l2.409 1.392c1.307.654 2.108-.116 2.108-.89V7.787c0-.142.114-.253.256-.253h1.115c.139 0 .255.111.255.253v10.021c0 1.745-.95 2.745-2.604 2.745-.509 0-.909 0-2.026-.551l-2.307-1.326c-.57-.329-.922-.943-.922-1.604V6.921c0-.66.352-1.273.922-1.602L11.076.247c.559-.323 1.303-.323 1.86 0l8.795 5.073c.57.329.924.942.924 1.601v10.15c0 .659-.354 1.273-.924 1.604l-8.795 5.078c-.28.163-.601.247-.938.247z"/>
</svg>
